# xmcd
#
# Track frame offsets:
#	150
#	2834
#	11544
#	22448
#	31454
#	39531
#	41251
#	52622
#	60629
#	64347
#	76115
#	85221
#	88676
#	102488
#	115191
#	118846
#	120356
#	131076
#	140681
#	142632
#
# Disc length: 2068 seconds
#
# Revision: 0
# Processed by: cddbd v1.5.1PL0 Copyright (c) Steve Scherf et al.
# Submitted via: dBpowerAMP V4.0
#
DISCID=07081214
DTITLE=P.S.D. - Mixes and Renditions vol. 3
DYEAR=1900
DGENRE=
TTITLE0=Ammbush Intro
TTITLE1=Stay Dipped
TTITLE2=Make Dat Cash ft. Peanut
TTITLE3=Fuck U! This Thizz ft. Geezy, Killa
TTITLE4=Wit Dat Toy ft. Cash
TTITLE5=Say Horrible Thangs 2 U
TTITLE6=Who U In There Wit?!! ft. Geezy
TTITLE7=How We Chew ft. Peanut
TTITLE8=To The Bone ft. Cash
TTITLE9=I Need to Know Her ft. Manilla Black
TTITLE10=Go Ammbush, Go Stevie
TTITLE11=Imagine Beggin 4 It
TTITLE12=Gimme Some Trimm
TTITLE13=Grey Bitch Problems
TTITLE14=Did You Bail Her Out?
TTITLE15=Get Gone
TTITLE16=Yo Cut
TTITLE17=Lit and Stock
TTITLE18=Soul Searchin
TTITLE19=Fuck The World We Love Furl ft. Dubee aka Sugawolf
EXTD=
EXTT0=
EXTT1=
EXTT2=
EXTT3=
EXTT4=
EXTT5=
EXTT6=
EXTT7=
EXTT8=
EXTT9=
EXTT10=
EXTT11=
EXTT12=
EXTT13=
EXTT14=
EXTT15=
EXTT16=
EXTT17=
EXTT18=
EXTT19=
PLAYORDER=
